<svg id="グループ_3222" data-name="グループ 3222" xmlns="http://www.w3.org/2000/svg" xmlns:xlink="http://www.w3.org/1999/xlink" width="17.425" height="16.5" viewBox="0 0 17.425 16.5">
  <defs>
    <clipPath id="clip-path">
      <rect id="長方形_4086" data-name="長方形 4086" width="17.425" height="16.5" fill="#fff"/>
    </clipPath>
  </defs>
  <rect id="長方形_4083" data-name="長方形 4083" width="17.425" height="4.442" transform="translate(0 3.583)" fill="#fff"/>
  <rect id="長方形_4084" data-name="長方形 4084" width="6.144" height="7.547" transform="translate(1.216 8.953)" fill="#fff"/>
  <rect id="長方形_4085" data-name="長方形 4085" width="6.143" height="7.547" transform="translate(10.066 8.953)" fill="#fff"/>
  <g id="グループ_3220" data-name="グループ 3220">
    <g id="グループ_3219" data-name="グループ 3219" clip-path="url(#clip-path)">
      <path id="パス_15024" data-name="パス 15024" d="M66.41,3.616a.1.1,0,0,1-.054.025.115.115,0,0,1-.029,0h-.073l-.089,0c-.06,0-.118,0-.178,0-.119,0-.236-.01-.354-.02a6.664,6.664,0,0,1-.7-.093,6.812,6.812,0,0,1-1.375-.4,4.29,4.29,0,0,1-.663-.339,1.9,1.9,0,0,1-.577-.559c-.019-.031-.039-.061-.057-.092s-.032-.069-.047-.1-.03-.067-.042-.1-.02-.076-.028-.113a.958.958,0,0,1-.021-.231,1.211,1.211,0,0,1,.034-.225,2.125,2.125,0,0,1,.085-.2c.038-.057.075-.114.114-.165l.13-.138c.045-.042.094-.079.141-.117A2.581,2.581,0,0,1,63.151.2c.06-.034.122-.069.187-.1s.138-.049.211-.071S63.7.005,63.774,0A1.958,1.958,0,0,1,64,.013a1.561,1.561,0,0,1,.759.36,3.576,3.576,0,0,1,.535.552,5.58,5.58,0,0,1,.727,1.256,6.733,6.733,0,0,1,.242.67c.034.113.064.228.091.344.013.058.028.115.037.174l.016.088.007.044,0,.022a.212.212,0,0,0,.006.028.1.1,0,0,1-.014.063M66.3,3.528a.051.051,0,0,0-.022.043c0,.022,0,.008,0,.008l-.013-.018-.026-.036-.051-.071-.1-.142-.2-.283L65.5,2.473a11.871,11.871,0,0,0-.811-1.037,4.033,4.033,0,0,0-.44-.425,3.782,3.782,0,0,0-.444-.3A.864.864,0,0,0,63.3.572a1.01,1.01,0,0,0-.584.257c-.029.049-.061.095-.086.144s-.044.1-.063.149-.02.1-.03.149,0,.1,0,.138a.68.68,0,0,0,.291.395,6.737,6.737,0,0,0,1.044.619c.392.189.807.361,1.226.534.209.089.421.172.633.265.106.045.213.089.319.137.053.024.107.045.16.071l.08.037.04.018.02.01,0,0a.055.055,0,0,0-.018,0,.049.049,0,0,0-.032.029" transform="translate(-57.698 0.001)" fill="#fff"/>
      <path id="パス_15025" data-name="パス 15025" d="M122.571,3.552a.22.22,0,0,0,.006-.028l0-.022.007-.044.016-.088c.01-.059.024-.116.037-.174.026-.116.056-.231.091-.345a6.723,6.723,0,0,1,.242-.67A5.578,5.578,0,0,1,123.7.925a3.576,3.576,0,0,1,.535-.552,1.561,1.561,0,0,1,.759-.36A1.94,1.94,0,0,1,125.22,0c.077.006.153.018.226.029s.144.046.211.071.127.068.187.1a2.58,2.58,0,0,1,.527.546c.046.038.1.075.141.117l.13.138c.04.051.076.108.114.165a2.136,2.136,0,0,1,.085.2,1.211,1.211,0,0,1,.034.225.962.962,0,0,1-.021.231c-.008.038-.018.076-.028.113s-.028.069-.042.1-.03.07-.047.1-.037.061-.057.092a1.9,1.9,0,0,1-.577.559,4.29,4.29,0,0,1-.663.339,6.811,6.811,0,0,1-1.375.4,6.66,6.66,0,0,1-.7.093c-.118.01-.235.019-.354.02-.059,0-.118,0-.178,0l-.089,0h-.073a.114.114,0,0,1-.029,0,.1.1,0,0,1-.054-.025.1.1,0,0,1-.014-.063m.087-.053a.055.055,0,0,0-.018,0l0,0,.02-.01.04-.018.08-.037c.053-.025.107-.047.16-.071.106-.048.213-.092.319-.137.211-.093.424-.177.633-.265.419-.173.834-.345,1.226-.534a6.737,6.737,0,0,0,1.044-.619.681.681,0,0,0,.291-.395c0-.043.007-.09,0-.138s-.017-.1-.03-.149-.041-.1-.063-.149-.057-.1-.086-.144A1.009,1.009,0,0,0,125.7.572a.864.864,0,0,0-.506.134,3.781,3.781,0,0,0-.444.3,4.033,4.033,0,0,0-.44.425,11.873,11.873,0,0,0-.811,1.037l-.393.558-.2.283-.1.142-.051.071-.026.036-.013.018s-.006.015,0-.008a.051.051,0,0,0-.022-.043.049.049,0,0,0-.032-.029" transform="translate(-113.843 0.001)" fill="#fff"/>
    </g>
  </g>
</svg>
