<svg xmlns="http://www.w3.org/2000/svg" xmlns:xlink="http://www.w3.org/1999/xlink" width="23.639" height="22.581" viewBox="0 0 23.639 22.581">
  <defs>
    <clipPath id="clip-path">
      <rect id="長方形_4985" data-name="長方形 4985" width="23.639" height="22.581" transform="translate(0 0)" fill="none"/>
    </clipPath>
  </defs>
  <g id="LINE" transform="translate(0 -0.002)">
    <g id="グループ_3805" data-name="グループ 3805" transform="translate(0 0.002)" clip-path="url(#clip-path)">
      <path id="パス_15945" data-name="パス 15945" d="M23.639,9.618C23.639,4.307,18.347,0,11.819,0S0,4.307,0,9.618c0,4.629,4.02,8.493,9.374,9.41l0,.012h.068q.31.052.626.09a1.088,1.088,0,0,1,.868,1.321c-.229,1.486-.267,2.134.343,2.134.588,0,8.454-4.225,10.85-8.253a8.23,8.23,0,0,0,1.514-4.711" transform="translate(0 -0.002)" fill="#fff"/>
      <path id="パス_15946" data-name="パス 15946" d="M205.67,357.694a.139.139,0,0,0-.139-.139h-.952a.139.139,0,0,0-.139.139v4.927a.139.139,0,0,0,.139.139h3.289a.139.139,0,0,0,.139-.139v-.83a.139.139,0,0,0-.139-.139h-2.059a.139.139,0,0,1-.139-.139Z" transform="translate(-200.271 -350.263)" fill="#02b1a6"/>
      <rect id="長方形_4984" data-name="長方形 4984" width="1.23" height="5.205" rx="0.615" transform="translate(8.393 7.292)" fill="#02b1a6"/>
      <path id="パス_15947" data-name="パス 15947" d="M521.575,359.728c0,.076,0,.2,0,.278v.235c0,.076-.027.095-.062.041s-.161-.246-.2-.309l-1.558-2.3a.294.294,0,0,0-.217-.115h-.817a.139.139,0,0,0-.139.139v4.927a.139.139,0,0,0,.139.139h.919a.139.139,0,0,0,.139-.139v-2.058c0-.076,0-.2,0-.278V360c0-.076.033-.086.075-.022l.09.138.154.232,1.536,2.3a.291.291,0,0,0,.216.116h.792a.139.139,0,0,0,.139-.139v-4.927a.139.139,0,0,0-.139-.139h-.926a.139.139,0,0,0-.139.139Z" transform="translate(-508.005 -350.263)" fill="#02b1a6"/>
      <path id="パス_15948" data-name="パス 15948" d="M778.631,361.657a.139.139,0,0,1-.139-.139v-.784a.139.139,0,0,1,.139-.139h1.718a.139.139,0,0,0,.139-.139v-.818a.139.139,0,0,0-.139-.139h-1.718a.139.139,0,0,1-.139-.139V358.8a.139.139,0,0,1,.139-.139h1.835a.139.139,0,0,0,.139-.139v-.824a.139.139,0,0,0-.139-.139H777.4a.139.139,0,0,0-.139.139v4.927a.139.139,0,0,0,.139.139h3.176a.139.139,0,0,0,.139-.139V361.8a.139.139,0,0,0-.139-.139Z" transform="translate(-761.41 -350.263)" fill="#02b1a6"/>
    </g>
  </g>
</svg>
