<svg xmlns="http://www.w3.org/2000/svg" width="28.772" height="48.553" viewBox="0 0 28.772 48.553">
  <g id="グループ_2566" data-name="グループ 2566" transform="translate(0)">
    <path id="パス_13929" data-name="パス 13929" d="M372.772,194.1V190H344v3.6a2.694,2.694,0,0,0,2.7,2.7h23.881A2.191,2.191,0,0,0,372.772,194.1Zm-11.689-.5h-5.395a.9.9,0,1,1,0-1.8h5.395a.9.9,0,1,1,0,1.8Z" transform="translate(-344 -147.741)" fill="#fff"/>
    <path id="パス_13930" data-name="パス 13930" d="M372.772,145.7a2.694,2.694,0,0,0-2.7-2.7H346.7a2.694,2.694,0,0,0-2.7,2.7v1.8h28.772Z" transform="translate(-344 -143)" fill="#fff"/>
    <rect id="長方形_3706" data-name="長方形 3706" width="28.772" height="35.269" transform="translate(0 5.859)" fill="#fff"/>
  </g>
</svg>
