<svg xmlns="http://www.w3.org/2000/svg" width="44.781" height="44.782" viewBox="0 0 44.781 44.782">
  <path id="パス_13928" data-name="パス 13928" d="M33.787,34.873l1.757-1.757a3.018,3.018,0,0,0,.429-4.042l-5.356-5.356s-1.744-1.935-3.373-.306l-3.13,3.13s-.732,1.248-3.5-1.014a49.523,49.523,0,0,1-4.935-4.487h0l-.075-.075-.075-.075h0a49.556,49.556,0,0,1-4.488-4.935c-2.261-2.772-1.013-3.5-1.013-3.5l3.13-3.13c1.629-1.629-.306-3.372-.306-3.372L7.491.592a3.018,3.018,0,0,0-4.043.429L1.691,2.777A5.842,5.842,0,0,0,0,6.109C-.024,9.661.3,17.461,9.67,26.851h0l.022.021.022.022h0c9.389,9.367,17.19,9.694,20.742,9.669A5.84,5.84,0,0,0,33.787,34.873Z" transform="matrix(0.966, 0.259, -0.259, 0.966, 9.464, 0)" fill="#fff"/>
</svg>
