<svg xmlns="http://www.w3.org/2000/svg" width="24.073" height="24.073" viewBox="0 0 24.073 24.073">
  <path id="tel" d="M16.143,16.662l.839-.839a1.442,1.442,0,0,0,.2-1.931l-2.559-2.559s-.833-.925-1.612-.146l-1.5,1.5s-.35.6-1.674-.484a23.662,23.662,0,0,1-2.358-2.144h0l-.036-.036-.036-.036h0A23.677,23.677,0,0,1,5.273,7.623C4.193,6.3,4.789,5.949,4.789,5.949l1.5-1.5c.778-.778-.146-1.611-.146-1.611L3.579.283a1.442,1.442,0,0,0-1.932.2l-.839.839A2.791,2.791,0,0,0,0,2.919c-.012,1.7.144,5.424,4.62,9.91h0l.01.01.01.01h0c4.486,4.475,8.213,4.632,9.91,4.62A2.79,2.79,0,0,0,16.143,16.662Z" transform="translate(9.258) rotate(32)" fill="#2d4140"/>
</svg>
